# Blender v2.82 (sub 7) OBJ File: 'Hexagon.blend'
# www.blender.org
mtllib Hexagon.mtl
o Cube_Cube.001
v -0.389698 0.100000 0.224994
v -0.433010 0.056688 0.250000
v -0.389698 0.100000 -0.224994
v -0.433010 0.056688 -0.250000
v 0.389698 0.100000 0.224994
v 0.433010 0.056688 0.250000
v 0.389698 0.100000 -0.224994
v 0.433010 0.056688 -0.250000
v 0.000000 0.056688 -0.500000
v -0.000000 0.100000 -0.449988
v 0.000000 0.056688 0.500000
v -0.000000 0.100000 0.449988
v -0.390092 -0.100000 0.225221
v -0.433010 -0.057082 0.250000
v -0.433010 -0.057082 -0.250000
v -0.390092 -0.100000 -0.225221
v 0.433010 -0.057082 0.250000
v 0.390092 -0.100000 0.225221
v 0.390092 -0.100000 -0.225221
v 0.433010 -0.057082 -0.250000
v 0.000000 -0.057082 -0.500000
v 0.000000 -0.100000 -0.450442
v 0.000000 -0.057082 0.500000
v -0.000000 -0.100000 0.450442
vt 0.636842 0.518027
vt 0.739664 0.506979
vt 0.861836 0.518027
vt 0.862292 0.731973
vt 0.748502 0.743021
vt 0.637298 0.731973
vt 0.428648 0.750000
vt 0.570860 0.750000
vt 0.570860 0.875493
vt 0.428648 0.881039
vt 0.428648 0.373111
vt 0.570860 0.383132
vt 0.570860 0.500000
vt 0.428648 0.500000
vt 0.570860 1.000000
vt 0.428648 1.000000
vt 0.137007 0.517868
vt 0.245028 0.506910
vt 0.362228 0.517868
vt 0.362120 0.732132
vt 0.242919 0.743090
vt 0.136899 0.732132
vt 0.875000 0.500000
vt 0.875000 0.750000
vt 0.625000 0.500000
vt 0.738053 0.500000
vt 0.748381 0.750000
vt 0.625000 0.750000
vt 0.428648 0.250000
vt 0.570860 0.250000
vt 0.125000 0.750000
vt 0.125000 0.500000
vt 0.244331 0.500000
vt 0.375000 0.750000
vt 0.241869 0.750000
vt 0.375000 0.500000
vt 0.428648 0.000000
vt 0.570860 0.000000
vn 0.0000 1.0000 0.0000
vn 0.5000 0.0000 0.8660
vn 0.5000 0.0000 -0.8660
vn -0.5000 0.0000 0.8660
vn 1.0000 0.0000 0.0000
vn 0.0000 -1.0000 0.0000
vn -0.7071 0.7071 0.0000
vn 0.3536 0.7071 -0.6124
vn 0.7071 0.7071 0.0000
vn -0.3536 0.7071 0.6124
vn -0.3536 0.7071 -0.6124
vn 0.3536 0.7071 0.6124
vn -0.5000 0.0000 -0.8660
vn -0.7071 -0.7071 0.0000
vn -0.3536 -0.7071 -0.6124
vn 0.7071 -0.7071 0.0000
vn 0.3536 -0.7071 0.6124
vn 0.3536 -0.7071 -0.6124
vn -0.3536 -0.7071 0.6124
vn -1.0000 0.0000 0.0000
usemtl None
s off
f 7/1/1 10/2/1 3/3/1 1/4/1 12/5/1 5/6/1
f 17/7/2 6/8/2 11/9/2 23/10/2
f 21/11/3 9/12/3 8/13/3 20/14/3
f 23/10/4 11/9/4 2/15/4 14/16/4
f 20/14/5 8/13/5 6/8/5 17/7/5
f 16/17/6 22/18/6 19/19/6 18/20/6 24/21/6 13/22/6
f 1/4/7 3/3/7 4/23/7 2/24/7
f 10/2/8 7/1/8 8/25/8 9/26/8
f 7/1/9 5/6/9 6/8/9 8/13/9
f 12/5/10 1/4/10 2/24/10 11/27/10
f 3/3/11 10/2/11 9/26/11 4/23/11
f 5/6/12 12/5/12 11/27/12 6/28/12
f 15/29/13 4/30/13 9/12/13 21/11/13
f 16/17/14 13/22/14 14/31/14 15/32/14
f 22/18/15 16/17/15 15/32/15 21/33/15
f 18/20/16 19/19/16 20/14/16 17/7/16
f 24/21/17 18/20/17 17/34/17 23/35/17
f 19/19/18 22/18/18 21/33/18 20/36/18
f 13/22/19 24/21/19 23/35/19 14/31/19
f 14/37/20 2/38/20 4/30/20 15/29/20
